<?xml version="1.0" encoding="UTF-8" standalone="no"?>
<!-- Created with Inkscape (http://www.inkscape.org/) -->

<svg
   xmlns:dc="http://purl.org/dc/elements/1.1/"
   xmlns:cc="http://creativecommons.org/ns#"
   xmlns:rdf="http://www.w3.org/1999/02/22-rdf-syntax-ns#"
   xmlns:svg="http://www.w3.org/2000/svg"
   xmlns="http://www.w3.org/2000/svg"
   xmlns:sodipodi="http://sodipodi.sourceforge.net/DTD/sodipodi-0.dtd"
   xmlns:inkscape="http://www.inkscape.org/namespaces/inkscape"
   width="298.6012mm"
   height="97.517845mm"
   viewBox="0 0 298.6012 97.517842"
   version="1.1"
   id="svg8"
   inkscape:version="0.92.4 (5da689c313, 2019-01-14)"
   sodipodi:docname="logo.svg">
  <defs
     id="defs2" />
  <sodipodi:namedview
     id="base"
     pagecolor="#ffffff"
     bordercolor="#666666"
     borderopacity="1.0"
     inkscape:pageopacity="0.0"
     inkscape:pageshadow="2"
     inkscape:zoom="0.7"
     inkscape:cx="681.7285"
     inkscape:cy="13.750932"
     inkscape:document-units="mm"
     inkscape:current-layer="layer1"
     showgrid="false"
     inkscape:window-width="1920"
     inkscape:window-height="1012"
     inkscape:window-x="0"
     inkscape:window-y="32"
     inkscape:window-maximized="1"
     fit-margin-top="0"
     fit-margin-left="0"
     fit-margin-right="0"
     fit-margin-bottom="0" />
  <metadata
     id="metadata5">
    <rdf:RDF>
      <cc:Work
         rdf:about="">
        <dc:format>image/svg+xml</dc:format>
        <dc:type
           rdf:resource="http://purl.org/dc/dcmitype/StillImage" />
        <dc:title></dc:title>
      </cc:Work>
    </rdf:RDF>
  </metadata>
  <g
     inkscape:label="Layer 1"
     inkscape:groupmode="layer"
     id="layer1"
     transform="translate(49.514881,-62.654762)">
    <rect
       style="opacity:1;fill:#000044;fill-opacity:1;stroke-width:0.26458332"
       id="rect841"
       width="298.6012"
       height="97.517845"
       x="-49.514881"
       y="62.654762" />
    <g
       id="g857"
       style="fill:#ff0000"
       inkscape:export-xdpi="219.1496"
       inkscape:export-ydpi="219.1496"
       transform="translate(6.593942,5.005127e-5)">
      <path
         inkscape:connector-curvature="0"
         id="path815"
         d="m 39.584067,142.21862 a 29.671131,29.671131 0 0 0 22.4038,-10.24537 21.828124,21.828124 0 0 1 -9.949778,2.40244 21.828124,21.828124 0 0 1 -21.828124,-21.82813 21.828124,21.828124 0 0 1 21.828124,-21.82812 21.828124,21.828124 0 0 1 9.939444,2.41794 29.671131,29.671131 0 0 0 -22.393466,-10.26087 29.671131,29.671131 0 0 0 -29.671054,29.67105 29.671131,29.671131 0 0 0 29.671054,29.67106 z"
         style="opacity:1;fill:#ff0000;fill-opacity:1;stroke-width:0.26458332" />
      <path
         inkscape:connector-curvature="0"
         id="path823"
         d="M 41.791168,132.22957 A 19.749256,19.749256 0 0 0 60.070157,112.53878 19.749256,19.749256 0 0 0 41.83406,92.86556 24.190477,24.190477 0 0 1 51.981762,112.53878 24.190477,24.190477 0 0 1 41.791168,132.22957 Z"
         style="opacity:1;fill:#ff0000;fill-opacity:1;stroke-width:0.30721062" />
      <path
         id="path830"
         d="m 37.562787,124.28045 a 14.087747,11.994711 0 0 0 11.043913,-9.9279 l -8.882325,-1.80498 8.87308,-1.80324 a 14.087747,11.994711 0 0 0 -11.024101,-9.92965 18.595824,18.595824 0 0 0 -4.188465,11.73729 18.595824,18.595824 0 0 0 4.177898,11.72848 z"
         style="opacity:1;fill:#ff0000;fill-opacity:1;stroke-width:0.15963894"
         inkscape:connector-curvature="0" />
    </g>
    <g
       aria-label="DnFas"
       transform="matrix(0.42838883,0,0,0.59598881,-53.513255,-143.52596)"
       style="font-style:normal;font-weight:normal;font-size:40px;line-height:1.25;font-family:sans-serif;letter-spacing:0px;word-spacing:0px;fill:#ffffff;fill-opacity:1;stroke:none"
       id="flowRoot828">
      <path
         inkscape:connector-curvature="0"
         d="m 329.625,398.89088 q 11.125,0 18.33333,7.125 7.20834,7.08334 7.20834,18.20834 v 10.04167 q 0,11.16666 -7.20834,18.25 -7.20833,7.04166 -18.33333,7.04166 h -27.29167 v -7.29166 l 6.45834,-1.25 v -43.54167 l -6.45834,-1.25 v -7.33334 h 6.45834 z m -8.66667,9.375 v 41.95834 H 329 q 6.54167,0 10.25,-4.41667 3.70833,-4.41666 3.70833,-11.54166 v -10.12501 q 0,-7.04166 -3.70833,-11.45833 -3.70833,-4.41667 -10.25,-4.41667 z"
         style="font-style:normal;font-variant:normal;font-weight:bold;font-stretch:normal;font-size:85.33333588px;font-family:'Roboto Slab';-inkscape-font-specification:'Roboto Slab Bold';fill:#ffffff"
         id="path852" />
      <path
         inkscape:connector-curvature="0"
         d="m 360.79167,452.26589 5.83333,-1.25 v -27.95834 l -6.45833,-1.25 v -7.33333 h 17.79167 l 0.54166,6.45833 q 2.25,-3.45833 5.54167,-5.375 3.29167,-1.91667 7.375,-1.91667 6.83333,0 10.66667,4.29167 3.83333,4.29167 3.83333,13.45834 v 19.625 l 5.83333,1.25 v 7.29166 H 388.5 v -7.29166 l 5.20834,-1.25 v -19.58334 q 0,-4.54167 -1.83334,-6.41667 -1.83333,-1.91666 -5.54166,-1.91666 -2.41667,0 -4.33334,1 -1.91666,0.95833 -3.20833,2.75 v 24.16667 l 4.91667,1.25 v 7.29166 h -22.91667 z"
         style="font-style:normal;font-variant:normal;font-weight:bold;font-stretch:normal;font-size:85.33333588px;font-family:'Roboto Slab';-inkscape-font-specification:'Roboto Slab Bold';fill:#ffffff"
         id="path854" />
      <path
         inkscape:connector-curvature="0"
         d="m 415.33333,452.26589 6.45834,-1.25 v -43.54167 l -6.45834,-1.25 v -7.33334 H 463.625 v 16.625 h -9.33333 l -0.54167,-7.25 h -19.79167 v 16.70834 h 21.25 v 9.375 h -21.25 v 16.66667 l 6.5,1.25 v 7.29166 h -25.125 z"
         style="font-style:normal;font-variant:normal;font-weight:bold;font-stretch:normal;font-size:85.33333588px;font-family:'Roboto Slab';-inkscape-font-specification:'Roboto Slab Bold';fill:#ffffff"
         id="path856" />
      <path
         inkscape:connector-curvature="0"
         d="m 495.66668,459.55755 q -0.5,-1.125 -0.875,-2.29166 -0.375,-1.20834 -0.58334,-2.41667 -2.16666,2.5 -5.29166,4.04167 -3.08334,1.54166 -7.08334,1.54166 -6.625,0 -10.54166,-3.58333 -3.875,-3.625 -3.875,-9.83333 0,-6.33334 5.08333,-9.79167 5.08333,-3.45833 14.91667,-3.45833 h 6.20833 v -4.41667 q 0,-3.25 -1.875,-5.04167 -1.875,-1.79167 -5.54167,-1.79167 -2.08333,0 -3.70833,0.5 -1.625,0.45834 -2.625,1.125 l -0.79167,4.83334 h -9.16666 l 0.0417,-10 q 3.33334,-2.25 7.625,-3.79167 4.33334,-1.54167 9.41667,-1.54167 8.375,0 13.58333,4.125 5.25,4.08334 5.25,11.66667 v 18.625 q 0,1.04167 0,1.95834 0.0417,0.91666 0.16667,1.75 l 3.70833,0.5 v 7.29166 z m -10.54167,-8.125 q 2.75,0 5,-1.16666 2.25,-1.20834 3.5,-3 v -6.875 h -6.20833 q -3.875,0 -5.875,1.83333 -2,1.79167 -2,4.33333 0,2.29167 1.45833,3.58334 1.5,1.29166 4.125,1.29166 z"
         style="font-style:normal;font-variant:normal;font-weight:bold;font-stretch:normal;font-size:85.33333588px;font-family:'Roboto Slab';-inkscape-font-specification:'Roboto Slab Bold';fill:#ffffff"
         id="path858" />
      <path
         inkscape:connector-curvature="0"
         d="m 550.58334,429.97422 h -8.16667 l -1.29166,-5.625 q -1.25,-1 -3.16667,-1.66667 -1.875,-0.66667 -4.16667,-0.66667 -3.20833,0 -5.08333,1.45834 -1.875,1.41666 -1.875,3.58333 0,2.04167 1.79167,3.41667 1.79166,1.33333 7.16666,2.375 8.375,1.66667 12.41667,4.91667 4.04167,3.20833 4.04167,8.875 0,6.08333 -5.25,9.95833 -5.20834,3.83333 -13.75,3.83333 -5.20834,0 -9.58334,-1.5 -4.33333,-1.54166 -7.70833,-4.375 l -0.125,-10.125 h 8.5 l 1.66667,5.875 q 1.08333,0.91667 2.95833,1.375 1.875,0.41667 3.91667,0.41667 3.70833,0 5.625,-1.33333 1.95833,-1.33334 1.95833,-3.625 0,-2 -1.95833,-3.45834 -1.95834,-1.45833 -7.20834,-2.58333 -7.95833,-1.625 -12.04166,-4.79167 -4.04167,-3.20833 -4.04167,-8.70833 0,-5.66667 4.66667,-9.75 4.66666,-4.125 13.29166,-4.125 5.25,0 9.91667,1.41666 4.70833,1.41667 7.375,3.625 z"
         style="font-style:normal;font-variant:normal;font-weight:bold;font-stretch:normal;font-size:85.33333588px;font-family:'Roboto Slab';-inkscape-font-specification:'Roboto Slab Bold';fill:#ffffff"
         id="path860" />
    </g>
    <flowRoot
       xml:space="preserve"
       id="flowRoot846"
       style="font-style:normal;font-weight:normal;font-size:40px;line-height:1.25;font-family:sans-serif;letter-spacing:0px;word-spacing:0px;fill:#000000;fill-opacity:1;stroke:none"
       transform="scale(0.26458333)"><flowRegion
         id="flowRegion848"><rect
           id="rect850"
           width="509.11688"
           height="448.50772"
           x="-246.47722"
           y="197.21996" /></flowRegion><flowPara
         id="flowPara852" /></flowRoot>  </g>
</svg>
